# This file uses centimeters as units for non-parametric coordinates.

mtllib smallerrock.mtl
g default
v 1.534491 10.607388 -90.550217
v -22.943073 -20.349144 14.001242
v 34.146343 5.533812 -77.081886
v -25.231895 2.267917 71.407074
v 29.548002 10.763700 -39.061096
v 24.262320 11.871848 -31.310511
v -30.610292 -1.356563 79.962852
v -23.411669 18.669773 -21.574226
v 32.132999 5.465220 -2.028260
v -40.388939 -9.262636 -24.405846
v -37.909027 5.506820 17.652674
v -30.318001 3.572450 -91.148804
v -9.590340 17.464800 -45.829201
v 46.016701 -17.065599 -61.966904
v -16.847448 13.898983 -84.584297
v -42.484112 -5.883867 -69.001991
v 4.162780 12.600035 1.050578
v -10.486785 -27.835121 -31.296736
v -4.625818 -24.602787 -0.022180
v -40.156063 -3.100075 -20.773752
v -43.376560 -0.815382 -61.728264
v -32.711422 6.834401 62.101265
v 29.401770 9.436515 -70.389778
v 31.524870 6.800819 -87.120979
v 15.812460 -4.156525 38.620216
v 6.956882 10.266095 15.062319
v -0.319815 -15.042999 68.595901
v 18.973862 11.077284 -10.213037
v -34.117828 -14.915851 92.781921
v 46.893913 -9.721974 -74.254356
v -32.498299 -13.225199 100.000000
v 42.744320 0.429104 -31.145742
v -27.560333 -12.748507 -88.748535
v -37.590878 -7.887527 93.259544
v 10.503385 10.585666 7.813632
v -38.197819 -12.045142 -69.822525
v 13.420407 -26.215309 -4.598441
v 11.490901 -19.248878 38.311615
v 27.729401 -0.762386 20.167799
v 26.203775 -25.457142 -49.118187
v -16.767122 5.518921 58.276768
v -20.153099 -5.890060 89.622795
v -9.684492 5.374691 44.271568
v -41.020664 2.178341 41.475605
v 46.307064 -16.413488 -28.492268
v -0.371700 -1.957770 58.743397
v -28.046101 16.703100 27.579399
v -32.505741 10.444352 39.615005
v -45.277321 -1.435632 23.936340
v 2.432900 19.664600 -29.641701
v -0.953328 6.249746 35.289448
v 16.242485 15.609495 -76.820900
v 31.863249 10.970893 -52.129787
v 21.862200 6.867376 -97.445778
v -7.544391 18.860558 -69.545334
v 41.873596 -3.778682 -12.130006
v 36.263336 1.635047 -88.257408
v 0.156046 8.424009 27.476305
v 22.792452 11.780146 -23.103081
v 10.153100 -10.079599 -97.724007
v -27.904537 -6.107247 -95.344398
v -22.489471 8.913455 58.700890
v -23.011507 -25.107864 -39.926109
v 15.372486 11.020116 1.980338
v -19.344379 3.450584 63.061523
v 38.752357 -16.222052 6.819036
v 32.828098 -17.451700 -88.816292
v 30.682590 -17.299053 25.244516
v -39.662430 -12.132068 56.533516
v -34.111435 8.112782 -13.137901
v -38.829075 7.655679 -53.410347
v -3.224320 -25.271933 -67.784256
v -2.758550 7.226550 -99.459702
v -20.271553 17.425219 -42.434738
v -4.292690 20.507299 -6.479860
vt 0.334950 0.817140
vt 0.558740 0.393810
vt 0.635710 0.976440
vt 0.573070 0.998040
vt 0.842680 0.089130
vt 0.801120 0.045090
vt 0.066340 0.717750
vt 0.062420 0.627720
vt 0.514580 0.043170
vt 0.264360 0.472810
vt 0.911720 0.602640
vt 0.431910 0.485600
vt 0.387890 0.293450
vt 0.371050 0.716340
vt 0.219660 0.618140
vt 0.667580 0.829400
vt 0.323130 0.739310
vt 0.393910 0.639780
vt 0.134000 0.396740
vt 0.569870 0.582750
vt 0.602890 0.453960
vt 0.402870 0.475120
vt 0.378860 0.612670
vt 0.443220 0.121030
vt 0.207810 0.888330
vt 0.367630 0.942900
vt 0.869920 0.367400
vt 0.995520 0.467440
vt 0.767690 0.216420
vt 0.984420 0.683140
vt 0.654140 0.054190
vt 0.628600 0.889170
vt 0.676200 0.030300
vt 0.823570 0.747170
vt 0.429590 0.712210
vt 0.708840 0.001950
vt 0.123780 0.317400
vt 0.107480 0.350620
vt 0.421900 0.664870
vt 0.695220 0.493020
vt 0.759040 0.357870
vt 0.454420 0.063380
vt 0.896150 0.479040
vt 0.646700 0.722680
vt 0.901610 0.159940
vt 0.359840 0.101990
vt 0.743340 0.081510
vt 0.938900 0.239530
vt 0.451930 0.225980
vt 0.761170 0.694650
vt 0.844440 0.238580
vt 0.269000 0.153790
vt 0.323950 0.265070
vt 0.382450 0.209260
vt 0.463380 0.279130
vt 0.068890 0.531880
vt 0.154820 0.566410
vt 0.991010 0.626700
vt 0.985670 0.391280
vt 0.954960 0.321430
vt 0.260370 0.835360
vt 0.138170 0.829760
vt 0.879690 0.818410
vt 0.706460 0.957520
vt 0.782350 0.916740
vt 0.393150 0.896050
vt 0.265350 0.711680
vt 0.271990 0.930500
vt 0.847570 0.648890
vt 0.454280 0.964530
vt 0.163590 0.254720
vt 0.973840 0.709530
vt 0.456500 0.836990
vt 0.402600 0.728350
vt 0.362800 0.133900
vt 0.487950 0.579320
vt 0.077270 0.466340
vt 0.864880 0.115920
vt 0.417600 0.069090
vt 0.809940 0.543170
vt 0.540290 0.875280
vt 0.821350 0.459310
vt 0.998040 0.506110
vt 0.546340 0.199250
vt 0.351720 0.454020
vt 0.342550 0.590250
vt 0.943120 0.750810
vt 0.534580 0.707580
vt 0.068470 0.566570
vt 0.377370 0.810860
vt 0.255710 0.579410
vt 0.179420 0.434740
vt 0.200610 0.196490
vn -0.947983 -0.318318 0.001168
vn -0.577484 0.800220 -0.161741
vn -0.291802 -0.954786 -0.056876
vn 0.148116 0.050413 -0.987684
vn -0.018768 0.780786 -0.624517
vn 0.490446 0.632270 -0.599748
vn 0.179175 0.828687 0.530259
vn -0.607217 0.747306 0.269854
vn 0.040277 0.872658 0.486669
vn 0.280750 0.953659 0.108232
vn 0.432438 0.875591 0.215264
vn 0.375628 0.912247 0.163428
vn -0.765669 -0.611297 0.200167
vn 0.075504 -0.994371 0.074328
vn 0.719692 -0.458860 0.521048
vn -0.741092 0.402827 0.537134
vn -0.854799 0.485796 0.182542
vn -0.762199 0.611488 0.212448
vn -0.072598 -0.997361 -0.000655
vn 0.175149 0.926024 -0.334368
vn -0.784442 0.578943 -0.222431
vn -0.220144 0.896327 -0.384883
vn 0.623849 0.626060 0.467826
vn 0.319039 0.878661 0.355202
vn -0.891583 0.052871 -0.449760
vn 0.098567 0.994003 0.047355
vn 0.329118 0.921943 0.204213
vn 0.580482 0.765495 0.277592
vn -0.071778 -0.996872 -0.033069
vn -0.120375 0.897662 0.423925
vn 0.430461 0.853134 0.294731
vn -0.657466 0.752620 -0.036065
vn -0.986074 -0.057979 -0.155875
vn -0.871486 -0.490363 -0.007459
vn -0.109268 -0.994000 -0.004869
vn -0.084894 -0.981029 -0.174283
vn 0.263731 -0.043157 -0.963630
vn 0.824591 0.505345 -0.254316
vn 0.165500 0.984687 -0.054778
vn 0.912887 0.390262 -0.119723
vn -0.291569 0.956059 -0.030632
vn -0.634457 0.756630 -0.158033
vn 0.021280 0.986799 0.160544
vn -0.510693 0.859343 0.026885
vn 0.070661 -0.874939 0.479050
vn -0.114428 -0.985585 -0.124613
vn 0.000714 -0.697239 -0.716838
vn 0.755242 0.412697 0.509206
vn 0.291452 0.918299 0.267921
vn 0.182733 0.955666 0.230892
vn -0.070717 -0.997493 -0.002522
vn 0.643613 -0.524251 0.557605
vn 0.929813 0.367849 0.011609
vn -0.083543 -0.996376 -0.015984
vn -0.642328 0.756309 0.124141
vn -0.793581 0.607053 -0.041430
vn 0.618242 0.712303 0.332266
vn 0.697536 0.716443 -0.012385
vn 0.470824 0.871369 -0.137989
vn 0.175413 0.969338 0.172087
vn 0.877410 0.476701 -0.053930
vn 0.363035 0.928743 0.075110
vn 0.464066 0.861525 0.205954
vn -0.611314 0.786263 0.089924
vn 0.415264 0.860431 0.295319
vn 0.326347 0.935787 0.133419
vn 0.977116 -0.132215 0.166627
vn 0.885667 0.421400 0.194978
vn 0.441213 0.878369 0.183844
vn 0.318256 0.835282 0.448350
vn 0.752778 0.386776 0.532663
vn -0.644443 0.761815 0.065812
vn -0.088160 -0.996071 -0.008429
vn 0.902072 0.340612 0.265047
vn -0.088472 -0.995864 -0.020696
s 1
g Spiky_Rock
usemtl Spiky_RockSG
f 10/12/1 21/23/2 36/39/3
f 60/73/4 73/90/5 54/66/6
f 4/5/7 7/6/8 42/47/9
f 64/58/10 9/11/11 28/30/12
f 29/31/13 38/41/14 27/29/15
f 49/55/16 34/36/17 44/49/18
f 19/21/19 38/41/14 29/31/13
f 1/1/20 12/14/21 15/17/22
f 25/27/23 9/11/11 64/58/10
f 46/51/24 4/5/7 42/47/9
f 21/23/2 12/14/21 16/18/25
f 75/92/26 17/19/27 50/57/28
f 10/12/1 36/39/3 63/76/29
f 48/54/30 62/75/31 47/53/32
f 20/22/33 21/23/2 10/12/1
f 42/47/9 7/6/8 34/36/17
f 69/84/34 2/2/35 29/31/13
f 67/81/36 57/70/37 30/32/38
f 24/4/39 3/3/40 57/70/37
f 13/15/41 8/10/42 50/57/28
f 55/67/43 74/91/44 13/15/41
f 31/33/45 27/29/15 42/47/9
f 46/51/24 42/47/9 27/29/15
f 33/35/46 16/18/25 61/74/47
f 34/36/17 31/33/45 42/47/9
f 58/71/48 26/37/49 17/19/27
f 64/77/10 17/19/27 35/38/50
f 33/35/46 36/39/3 16/18/25
f 37/40/51 68/82/52 38/41/14
f 67/81/36 14/16/53 40/44/54
f 48/54/30 44/49/18 22/24/55
f 11/13/56 48/54/30 47/53/32
f 11/13/56 20/22/33 49/55/16
f 11/13/56 49/55/16 48/54/30
f 17/19/27 64/77/10 50/57/28
f 25/27/23 64/58/10 26/28/49
f 58/59/48 51/60/57 26/28/49
f 53/62/58 23/25/59 5/7/60
f 54/66/6 24/26/39 57/70/37
f 32/34/61 53/65/58 5/63/60
f 60/73/4 61/74/47 73/90/5
f 12/14/21 1/1/20 73/90/5
f 32/34/61 5/63/60 6/87/62
f 23/25/59 52/61/63 5/7/60
f 61/74/47 12/14/21 73/90/5
f 23/25/59 3/68/40 24/26/39
f 8/10/42 47/53/32 75/92/26
f 70/85/64 20/22/33 11/13/56
f 14/16/53 67/81/36 30/32/38
f 51/93/57 58/71/48 43/52/65
f 46/51/24 51/60/57 43/48/65
f 9/11/11 59/72/66 28/30/12
f 9/11/11 6/87/62 59/72/66
f 46/51/24 27/29/15 25/27/23
f 7/9/8 4/42/7 22/24/55
f 58/71/48 62/75/31 43/52/65
f 58/71/48 75/92/26 62/75/31
f 45/50/67 32/34/61 56/69/68
f 47/53/32 62/75/31 75/92/26
f 36/39/3 21/23/2 16/18/25
f 1/1/20 55/67/43 52/61/63
f 37/40/51 38/41/14 19/21/19
f 32/34/61 45/50/67 14/16/53
f 13/15/41 74/91/44 8/10/42
f 31/33/45 29/31/13 27/29/15
f 46/51/24 41/45/69 65/78/70
f 9/11/11 25/27/23 39/43/71
f 45/50/67 40/44/54 14/16/53
f 34/36/17 49/55/16 29/31/13
f 58/71/48 17/19/27 75/92/26
f 69/84/34 10/12/1 63/76/29
f 63/76/29 2/2/35 69/84/34
f 51/60/57 46/51/24 25/27/23
f 50/57/28 5/7/60 55/67/43
f 15/17/22 71/86/72 74/91/44
f 15/17/22 74/91/44 55/67/43
f 26/28/49 64/58/10 35/83/50
f 55/67/43 13/15/41 50/57/28
f 46/51/24 65/78/70 4/5/7
f 70/85/64 71/86/72 20/22/33
f 40/44/54 45/50/67 37/40/51
f 67/81/36 40/44/54 72/88/73
f 20/22/33 71/86/72 21/23/2
f 33/35/46 60/73/4 67/81/36
f 47/53/32 8/10/42 11/13/56
f 8/10/42 70/85/64 11/13/56
f 12/14/21 61/74/47 16/18/25
f 2/2/35 19/21/19 29/31/13
f 39/43/71 56/69/68 9/11/11
f 71/86/72 12/14/21 21/23/2
f 71/86/72 15/17/22 12/14/21
f 25/27/23 26/28/49 51/60/57
f 63/76/29 33/35/46 72/88/73
f 59/89/66 50/57/28 28/56/12
f 64/77/10 28/56/12 50/57/28
f 60/73/4 57/70/37 67/81/36
f 33/35/46 67/81/36 72/88/73
f 39/43/71 66/80/74 56/69/68
f 54/66/6 1/1/20 24/26/39
f 69/84/34 49/55/16 10/12/1
f 25/27/23 27/29/15 68/82/52
f 14/16/53 30/32/38 3/3/40
f 31/33/45 34/36/17 29/31/13
f 37/40/51 66/80/74 68/82/52
f 8/10/42 75/92/26 50/57/28
f 56/69/68 32/34/61 9/11/11
f 18/20/75 63/76/29 72/88/73
f 23/64/59 53/65/58 3/3/40
f 17/19/27 26/37/49 35/38/50
f 18/20/75 19/21/19 2/2/35
f 63/76/29 18/20/75 2/2/35
f 4/42/7 62/75/31 22/24/55
f 1/1/20 15/17/22 55/67/43
f 54/66/6 73/90/5 1/1/20
f 4/42/7 41/46/69 62/75/31
f 4/42/7 65/79/70 41/46/69
f 20/22/33 10/12/1 49/55/16
f 49/55/16 69/84/34 29/31/13
f 70/85/64 8/10/42 74/91/44
f 37/40/51 45/50/67 66/80/74
f 7/9/8 44/49/18 34/36/17
f 71/86/72 70/85/64 74/91/44
f 9/11/11 32/34/61 6/87/62
f 41/45/69 46/51/24 43/48/65
f 30/32/38 57/70/37 3/3/40
f 68/82/52 66/80/74 39/43/71
f 6/8/62 5/7/60 50/57/28
f 60/73/4 33/35/46 61/74/47
f 49/55/16 44/49/18 48/54/30
f 62/75/31 48/54/30 22/24/55
f 43/52/65 62/75/31 41/46/69
f 36/39/3 33/35/46 63/76/29
f 40/44/54 18/20/75 72/88/73
f 68/82/52 39/43/71 25/27/23
f 44/49/18 7/9/8 22/24/55
f 40/44/54 37/40/51 18/20/75
f 18/20/75 37/40/51 19/21/19
f 53/65/58 32/34/61 14/16/53
f 3/3/40 53/65/58 14/16/53
f 23/25/59 24/26/39 1/1/20
f 23/25/59 1/1/20 52/61/63
f 56/69/68 66/80/74 45/50/67
f 52/61/63 55/67/43 5/7/60
f 6/8/62 50/57/28 59/89/66
f 60/73/4 54/66/6 57/70/37
f 68/82/52 27/29/15 38/41/14
